<?xml version="1.0" encoding="utf-8"?>
<!-- Generator: Adobe Illustrator 15.1.0, SVG Export Plug-In . SVG Version: 6.00 Build 0)  -->
<!DOCTYPE svg PUBLIC "-//W3C//DTD SVG 1.1//EN" "http://www.w3.org/Graphics/SVG/1.1/DTD/svg11.dtd">
<svg version="1.1" id="Layer_1" xmlns="http://www.w3.org/2000/svg" xmlns:xlink="http://www.w3.org/1999/xlink" x="0px" y="0px"
	 width="1919.999px" height="1079.998px" viewBox="0 0 1919.999 1079.998" enable-background="new 0 0 1919.999 1079.998"
	 xml:space="preserve">
<rect x="-0.001" y="-0.001" fill="#CCE4FF" width="1920" height="1079.999"/>
<rect x="-0.001" y="918.359" fill="#7F992C" width="1920" height="161.639"/>
<g>
	<path fill="#B3DD5F" stroke="#59595B" stroke-width="2.947" stroke-miterlimit="10" d="M627.544,978.435
		c0,0-49.74-150.267-217.685-137.892C409.859,840.543,518.178,856.454,627.544,978.435z"/>
	<path fill="#B3DD5F" stroke="#59595B" stroke-width="2.947" stroke-miterlimit="10" d="M626.738,977.845
		c0,0,29.181-88.155,127.707-80.896C754.445,896.949,690.899,906.283,626.738,977.845z"/>
	
		<line fill="#B3DD5F" stroke="#59595B" stroke-width="5.894" stroke-miterlimit="10" x1="626.738" y1="765.191" x2="626.738" y2="977.845"/>
	<g>
		<g>
			<g>
				<path fill="#EDDB72" stroke="#59595B" stroke-width="2.947" stroke-miterlimit="10" d="M626.812,665.623
					c44.404,42.116,5.974,78.164,0.284,82.968l-0.405-0.374c-44.406-42.116-6.058-77.348-0.368-82.15L626.812,665.623z"/>
			</g>
			<g>
				<path fill="#EDDB72" stroke="#59595B" stroke-width="2.947" stroke-miterlimit="10" d="M626.812,781.792
					c44.404,42.116,5.974,78.164,0.284,82.968l-0.405-0.374c-44.406-42.116-6.058-77.348-0.368-82.151L626.812,781.792z"/>
			</g>
			<g>
				<path fill="#EDDB72" stroke="#59595B" stroke-width="2.947" stroke-miterlimit="10" d="M527.17,765.119
					c42.115-44.405,78.164-5.975,82.968-0.284l-0.374,0.404c-42.116,44.406-77.348,6.058-82.15,0.368L527.17,765.119z"/>
			</g>
			<g>
				<path fill="#EDDB72" stroke="#59595B" stroke-width="2.947" stroke-miterlimit="10" d="M643.339,765.119
					c42.116-44.405,78.164-5.975,82.968-0.284l-0.375,0.404c-42.115,44.406-77.347,6.058-82.15,0.368L643.339,765.119z"/>
			</g>
			<g>
				<path fill="#EDDB72" stroke="#59595B" stroke-width="2.947" stroke-miterlimit="10" d="M556.385,694.734
					c61.179-1.618,59.494,51.046,58.867,58.466l-0.551,0.021c-61.181,1.62-58.977-50.408-58.35-57.828L556.385,694.734z"/>
			</g>
			<g>
				<path fill="#EDDB72" stroke="#59595B" stroke-width="2.947" stroke-miterlimit="10" d="M638.529,776.878
					c61.179-1.618,59.494,51.046,58.867,58.467l-0.551,0.021c-61.182,1.619-58.977-50.409-58.35-57.829L638.529,776.878z"/>
			</g>
			<g>
				<path fill="#EDDB72" stroke="#59595B" stroke-width="2.947" stroke-miterlimit="10" d="M556.281,835.546
					c-1.619-61.18,51.045-59.495,58.467-58.869l0.021,0.553c1.619,61.18-50.41,58.976-57.83,58.349L556.281,835.546z"/>
			</g>
			<g>
				<path fill="#EDDB72" stroke="#59595B" stroke-width="2.947" stroke-miterlimit="10" d="M638.426,753.401
					c-1.619-61.179,51.045-59.494,58.465-58.867l0.021,0.551c1.62,61.181-50.408,58.976-57.828,58.349L638.426,753.401z"/>
			</g>
		</g>
		<circle fill="#59595B" cx="626.738" cy="765.191" r="30.023"/>
	</g>
</g>
<path fill="#FFFFFF" d="M721.372,172.655c-6.662,0-12.862,1.96-18.071,5.324c-10.064-18.991-30.028-31.929-53.019-31.929
	c-16.302,0-31.081,6.506-41.891,17.062c-13.934-21.053-37.824-34.943-64.961-34.943c-35.457,0-65.374,23.707-74.775,56.133
	c-6.119-7.126-15.187-11.647-25.316-11.647c-18.427,0-33.364,14.938-33.364,33.364s14.938,33.365,33.364,33.365
	c10.129,0,19.197-4.521,25.316-11.647c9.401,32.426,39.318,56.132,74.775,56.132c27.137,0,51.028-13.889,64.961-34.942
	c10.81,10.555,25.589,17.062,41.891,17.062c22.99,0,42.954-12.939,53.019-31.93c5.209,3.363,11.409,5.325,18.071,5.325
	c18.426,0,33.363-14.938,33.363-33.365S739.798,172.655,721.372,172.655z"/>
</svg>
