<?xml version="1.0" encoding="utf-8"?>
<!-- Generator: Adobe Illustrator 15.1.0, SVG Export Plug-In . SVG Version: 6.00 Build 0)  -->
<!DOCTYPE svg PUBLIC "-//W3C//DTD SVG 1.1//EN" "http://www.w3.org/Graphics/SVG/1.1/DTD/svg11.dtd">
<svg version="1.1" id="Layer_1" xmlns="http://www.w3.org/2000/svg" xmlns:xlink="http://www.w3.org/1999/xlink" x="0px" y="0px"
	 width="551.786px" height="417.857px" viewBox="0 0 551.786 417.857" enable-background="new 0 0 551.786 417.857"
	 xml:space="preserve">
<g>
	<g>
		<g>
			<path fill="none" stroke="#59595B" stroke-width="10" stroke-miterlimit="10" d="M417.553,103.876
				c-0.55-1.857-1.959-5.434-1.959-5.434c-13.301-5.252-27.785-8.169-42.962-8.169c-15.173,0-29.657,2.917-42.962,8.169
				c-0.763,1.75-1.411,3.568-1.961,5.434l-8.368,23.217c0,0,15.639,9.587,53.291,9.587c37.657,0,53.287-9.587,53.287-9.587
				L417.553,103.876z"/>
			<g>
				<path fill="none" stroke="#59595B" stroke-width="10" stroke-miterlimit="10" d="M162.673,247.913
					c-0.419-1.416-1.495-4.145-1.495-4.145c-10.146-4.006-21.194-6.23-32.772-6.23c-11.576,0-22.624,2.225-32.773,6.23
					c-0.583,1.336-1.078,2.725-1.497,4.145l-6.384,17.711c0,0,11.931,7.314,40.654,7.314c28.727,0,40.65-7.314,40.65-7.314
					L162.673,247.913z"/>
				<g>
					<g>
						<path fill-rule="evenodd" clip-rule="evenodd" fill="none" stroke="#59595B" stroke-width="10" stroke-miterlimit="10" d="
							M151.422,290.124c0.448,0.434,0.865,0.881,1.248,1.337C152.224,291.028,151.805,290.581,151.422,290.124z"/>
						<path fill-rule="evenodd" clip-rule="evenodd" fill="none" stroke="#59595B" stroke-width="10" stroke-miterlimit="10" d="
							M151.42,274.78c0.385-0.459,0.804-0.906,1.252-1.34C152.292,273.899,151.871,274.345,151.42,274.78z"/>
						<path fill-rule="evenodd" clip-rule="evenodd" fill="none" stroke="#59595B" stroke-width="10" stroke-miterlimit="10" d="
							M151.42,323.493c0.45,0.432,0.871,0.881,1.252,1.338C152.224,324.403,151.805,323.954,151.42,323.493z"/>
						<path fill-rule="evenodd" clip-rule="evenodd" fill="none" stroke="#59595B" stroke-width="10" stroke-miterlimit="10" d="
							M151.422,308.147c0.383-0.461,0.802-0.904,1.248-1.334C152.288,307.272,151.871,307.716,151.422,308.147z"/>
					</g>
				</g>
				<path fill="none" stroke="#59595B" stroke-width="10" stroke-miterlimit="10" d="M154.476,270.502
					c-6.365,1.341-14.962,2.437-26.07,2.437c-10.771,0-18.982-0.984-25.287-2.271c0.095,2.978,1.175,9.288,3.018,11.481
					c0.384,0.461,0.805,0.904,1.254,1.338c1.928,2.299,3.023,4.904,3.023,7.674c0,2.766-1.096,5.373-3.025,7.673
					c-0.447,0.429-0.865,0.876-1.25,1.336c-1.929,2.3-3.025,4.907-3.025,7.675c0,2.766,1.097,5.373,3.025,7.676
					c0.385,0.459,0.803,0.904,1.25,1.334c1.93,2.303,3.025,4.906,3.025,7.672c0,2.771-1.096,5.375-3.023,7.676
					c-0.449,0.436-0.87,0.882-1.254,1.338c-1.929,2.299-3.023,4.902-3.023,7.674v0.163c0.271,6.444,11.705,11.196,25.538,10.614
					c13.832-0.586,19.22-6.031,24.021-11.811c1.929-2.301,3.023-4.904,3.023-7.676c0-2.77-1.094-5.378-3.023-7.674
					c-0.383-0.457-0.804-0.906-1.253-1.338c-1.928-2.299-3.024-4.904-3.024-7.676c0-2.766,1.097-5.371,3.025-7.67
					c0.448-0.432,0.865-0.875,1.25-1.334c1.929-2.305,3.025-4.912,3.025-7.676c0-2.77-1.096-5.377-3.025-7.677
					c-0.385-0.456-0.802-0.903-1.25-1.337c-1.929-2.297-3.025-4.906-3.025-7.672c0-2.771,1.097-5.375,3.024-7.672
					c0.449-0.436,0.87-0.881,1.253-1.34C153.82,271.95,154.476,270.502,154.476,270.502z"/>
			</g>
			<circle fill="none" stroke="#59595B" stroke-width="10" stroke-miterlimit="10" cx="232.331" cy="119.479" r="31.336"/>
			<path fill="#B3DD5F" stroke="#59595B" stroke-width="10" stroke-miterlimit="10" d="M477.636,328.045
				c0,0-2.083-1.554-2.934-2.108c-4.61-4.057-12.449-15.42-12.192-45.752c0,0-0.007-1.609-0.007-2.455l0,0h0.004
				c-0.238-28.533,6.687-40.281,11.345-44.951c1.428-0.891,2.796-1.86,4.099-2.908h0.005c9.479-7.631,15.555-19.312,15.555-32.42
				c0-5.885-1.232-11.481-3.439-16.557c-11.816-4.66-24.68-7.252-38.154-7.252c-13.48,0-26.341,2.592-38.158,7.252
				c-2.205,5.076-3.435,10.672-3.435,16.557c0,14.917,7.866,27.998,19.67,35.343c4.658,4.679,11.574,16.427,11.336,44.937
				c0,0.846,0.002,2.455,0.002,2.455c0.252,30.324-7.585,41.688-12.192,45.748c-0.851,0.559-2.934,2.112-2.934,2.112
				c-9.663,7.625-15.879,19.427-15.879,32.677c0,4.557,0.745,8.945,2.103,13.047c12.177,5.006,25.502,7.781,39.487,7.781
				c13.988,0,27.315-2.775,39.495-7.785c1.354-4.102,2.104-8.486,2.104-13.043C493.515,347.472,487.298,335.67,477.636,328.045z"/>
			<path fill="none" stroke="#59595B" stroke-width="10" stroke-miterlimit="10" d="M358.572,267.3c0,0-0.374-0.382-0.556-0.557
				c-19.484-19.594-36.87-33.866-36.87-33.866c-2.148-1.978-7.061-5.043-7.061-5.043c-5.528-3.231-0.093-13.481-0.093-13.481
				c0.993-2.15,1.556-4.532,1.556-7.051c0-9.318-7.564-16.889-16.889-16.889c-9.321,0-16.891,7.571-16.891,16.889
				c0,2.53,1.561,7.078,1.561,7.078s5.526,10.223,0,13.455c0,0-5.012,3.065-7.155,5.043c0,0-17.399,14.282-36.883,33.88
				c-0.172,0.161-0.34,0.334-0.51,0.508c-0.009,0.012-0.029,0.035-0.029,0.035c-5.828,5.975-9.426,14.143-9.426,23.146
				c0,18.314,14.864,33.179,33.177,33.179h72.313c18.312,0,33.181-14.864,33.181-33.179
				C367.998,281.442,364.399,273.278,358.572,267.3z"/>
			<path fill="none" stroke="#59595B" stroke-width="10" stroke-miterlimit="10" d="M154.143,173.61c0-2.36-0.486-4.608-1.358-6.646
				L136.583,65.966c0,0,0.62-2.949,0.62-4.508c0-9.352-7.589-16.943-16.937-16.943H87.04c-9.349,0-16.939,7.591-16.939,16.939
				c0,1.578,0.231,3.096,0.637,4.543c0,0-1.023,46.902-16.232,101.005l0,0c-0.865,2.028-1.339,4.265-1.339,6.61
				c0,7.582,4.993,14.006,11.87,16.166c0.087,0.035,17.138,7.607,36.664,8.582c0.753,0.053,2.276,0.092,2.276,0.092l0,0
				c0.767,0,1.527-0.039,2.278-0.092c19.58-0.978,36.511-8.766,36.511-8.766C149.384,187.288,154.143,181.007,154.143,173.61z"/>
		</g>
	</g>
</g>
</svg>
